<?xml version="1.0" standalone="no"?>
<!DOCTYPE svg PUBLIC "-//W3C//DTD SVG 20010904//EN"
 "http://www.w3.org/TR/2001/REC-SVG-20010904/DTD/svg10.dtd">
<svg version="1.0" xmlns="http://www.w3.org/2000/svg"
 width="1119.000000pt" height="1119.000000pt" viewBox="0 0 1119.000000 1119.000000"
 preserveAspectRatio="xMidYMid meet">
<metadata>
Created by potrace 1.14, written by Peter Selinger 2001-2017
</metadata>
<g transform="translate(0.000000,1119.000000) scale(0.100000,-0.100000)"
fill="#000000" stroke="none">
<path d="M4430 10138 c-66 -11 -131 -50 -167 -100 -68 -93 -63 131 -63 -2974
l0 -2811 -402 -1 c-222 -1 -414 -3 -428 -5 -106 -17 -180 -65 -219 -142 l-26
-49 0 -291 c0 -335 4 -356 80 -423 83 -73 111 -77 582 -77 l413 0 1 -960 c0
-528 2 -971 5 -985 13 -71 40 -126 83 -170 87 -86 -77 -80 1861 -76 943 2
1735 6 1760 9 25 3 92 8 150 12 58 4 121 9 140 10 19 2 62 6 95 9 33 3 76 8
95 11 19 3 58 7 85 11 45 5 89 11 210 30 22 3 96 17 165 31 69 13 136 27 150
29 14 3 84 20 155 39 448 117 810 293 1059 516 279 249 504 564 633 884 36 88
84 231 85 252 0 5 4 18 9 31 5 13 11 37 14 55 4 18 10 51 16 75 5 23 12 59 15
78 3 20 7 46 10 58 19 99 27 507 12 631 -59 484 -273 878 -648 1190 -91 76
-465 335 -483 335 -3 0 -48 25 -101 55 -159 90 -332 169 -496 227 -87 30 -319
86 -390 93 -94 10 -102 20 -28 35 294 61 597 210 912 448 505 383 753 766 819
1272 13 99 16 437 4 500 -3 14 -8 48 -12 75 -13 99 -16 121 -25 155 -5 19 -12
50 -15 68 -14 81 -103 325 -165 450 -178 360 -458 685 -756 878 -267 172 -691
325 -1109 400 -47 8 -162 27 -185 29 -37 5 -109 16 -128 20 -10 1 -46 6 -82 9
-36 4 -76 9 -90 11 -14 2 -61 7 -105 10 -44 3 -93 8 -110 10 -29 4 -150 12
-330 22 -148 8 -3007 9 -3055 1z m3030 -1041 c25 -3 99 -8 164 -12 66 -4 129
-9 140 -11 11 -2 48 -6 81 -9 169 -16 425 -61 565 -100 30 -9 62 -17 70 -20
37 -9 172 -61 240 -92 254 -118 473 -345 575 -595 34 -83 68 -202 80 -283 14
-85 13 -379 0 -450 -23 -118 -25 -128 -50 -201 -105 -312 -342 -589 -693 -811
-313 -197 -744 -338 -1162 -378 -36 -4 -76 -8 -90 -11 -100 -15 -1876 -28
-1940 -13 l-25 5 0 1496 0 1496 1000 -4 c550 -2 1020 -5 1045 -7z m-110 -3831
c107 -4 218 -8 245 -11 141 -11 212 -18 227 -20 9 -2 44 -6 77 -10 33 -3 70
-8 83 -10 13 -3 37 -7 53 -10 17 -2 50 -7 75 -11 25 -3 111 -21 193 -40 528
-121 908 -339 1149 -660 60 -79 64 -86 109 -169 64 -121 107 -253 144 -445 14
-69 13 -423 0 -505 -23 -144 -26 -157 -55 -249 -102 -331 -311 -564 -648 -722
-143 -68 -444 -162 -602 -189 -19 -3 -44 -7 -55 -9 -11 -2 -67 -11 -125 -20
-58 -9 -115 -18 -128 -21 -13 -2 -53 -7 -90 -10 -37 -4 -78 -8 -91 -10 -13 -2
-67 -7 -120 -10 -53 -4 -112 -8 -131 -10 -133 -16 -2212 -27 -2236 -13 -7 5
-12 1119 -5 1148 0 3 423 5 939 4 1094 0 1060 -3 1159 90 60 55 67 97 67 411
l0 280 -26 56 c-31 68 -75 104 -160 131 -61 19 -92 20 -1023 20 l-960 1 0 506
c0 482 1 506 18 511 26 7 1686 4 1917 -4z"/>
<path d="M270 8840 l0 -1300 1300 0 1300 0 0 1300 0 1300 -1300 0 -1300 0 0
-1300z"/>
<path d="M270 5600 l0 -1300 1300 0 1300 0 0 1300 0 1300 -1300 0 -1300 0 0
-1300z"/>
<path d="M270 2370 l0 -1300 1300 0 1300 0 0 1300 0 1300 -1300 0 -1300 0 0
-1300z m2350 0 l0 -1050 -1050 0 -1050 0 0 1050 0 1050 1050 0 1050 0 0 -1050z"/>
</g>
</svg>
